<svg width="50" height="50" viewBox="0 0 50 50" fill="none" xmlns="http://www.w3.org/2000/svg">
<g clip-path="url(#clip0_164_4635)">
<mask id="mask0_164_4635" style="mask-type:luminance" maskUnits="userSpaceOnUse" x="0" y="0" width="50" height="50">
<path d="M50 0H0V50H50V0Z" fill="white"/>
<path d="M50 25.0001C50 38.8072 38.8071 50 25 50C11.193 50 0.00012207 38.8072 0.00012207 25.0001C0.00012207 11.193 11.193 0.000148773 25 0.000148773C38.8071 0.000148773 50 11.193 50 25.0001Z" fill="white"/>
<path d="M16.0845 28.0747V30.3303H8.25437V28.5488L12.0186 25.0289C12.8232 24.2817 12.9381 23.8219 12.9381 23.4053C12.9381 22.7588 12.5071 22.3709 11.6451 22.3709C10.9124 22.3709 10.2514 22.7013 9.84909 23.3478L7.73718 22.1697C8.49861 20.9054 9.92097 20.0721 11.9037 20.0721C14.2168 20.0721 15.8116 21.2646 15.8116 23.1323C15.8116 24.1093 15.5386 25.0001 14.1018 26.3218L12.2053 28.0747H16.0845Z" fill="black"/>
<path d="M26.6164 28.4049H25.1223V30.3301H22.3493V28.4049H17.0334V26.5515L21.5448 20.273H24.4901L20.3954 26.1492H22.4356V24.4396H25.1223V26.1492H26.6164V28.4049Z" fill="black"/>
<path d="M31.5161 18.2329H33.9441L29.2029 31.7668H26.7748L31.5161 18.2329Z" fill="black"/>
<path d="M42.2628 20.2732V22.0548L38.7142 30.3303H35.6108L39.0015 22.5289H36.3579V24.0805H33.9298V20.2732H42.2628Z" fill="black"/>
</mask>
<g mask="url(#mask0_164_4635)">
<mask id="mask1_164_4635" style="mask-type:luminance" maskUnits="userSpaceOnUse" x="0" y="0" width="50" height="50">
<path d="M0 0.000148773H49.9999V50H0V0.000148773Z" fill="white"/>
</mask>
<g mask="url(#mask1_164_4635)">
<path d="M49.9999 25.0001C49.9999 38.8072 38.807 50 24.9999 50C11.1928 50 0 38.8072 0 25.0001C0 11.193 11.1928 0.000148773 24.9999 0.000148773C38.807 0.000148773 49.9999 11.193 49.9999 25.0001Z" fill="#B74140"/>
<path d="M16.0845 28.0747V30.3303H8.25437V28.5488L12.0186 25.0289C12.8232 24.2817 12.9381 23.8219 12.9381 23.4053C12.9381 22.7588 12.5071 22.3709 11.6451 22.3709C10.9124 22.3709 10.2514 22.7013 9.84909 23.3478L7.73718 22.1697C8.49861 20.9054 9.92097 20.0721 11.9037 20.0721C14.2168 20.0721 15.8116 21.2646 15.8116 23.1323C15.8116 24.1093 15.5386 25.0001 14.1018 26.3218L12.2053 28.0747H16.0845Z" fill="white"/>
<path d="M26.6163 28.4051H25.1222V30.3303H22.3492V28.4051H17.0333V26.5517L21.5446 20.2732H24.4899L20.3952 26.1495H22.4355V24.4398H25.1222V26.1495H26.6163V28.4051Z" fill="white"/>
<path d="M31.516 18.2331H33.944L29.2028 31.7671H26.7747L31.516 18.2331Z" fill="white"/>
<path d="M42.2627 20.2732V22.0548L38.714 30.3303H35.6106L39.0014 22.5289H36.3578V24.0805H33.9297V20.2732H42.2627Z" fill="white"/>
</g>
</g>
</g>
<defs>
<clipPath id="clip0_164_4635">
<rect width="50" height="50" fill="white"/>
</clipPath>
</defs>
</svg>
