<svg width="50" height="50" viewBox="0 0 50 50" fill="none" xmlns="http://www.w3.org/2000/svg">
<g clip-path="url(#clip0_164_4627)">
<path fill-rule="evenodd" clip-rule="evenodd" d="M13.9355 48.3496C14.0039 48.4766 13.9648 48.6426 13.8378 48.7207C13.7597 48.7305 11.6796 50.0586 11.6406 49.9023C11.582 49.8828 11.5234 49.8438 11.4843 49.7949L7.64644 43.1543C7.57808 43.0273 7.61715 42.8613 7.7441 42.7832L9.73629 41.6309C9.86324 41.5625 10.0293 41.6016 10.1074 41.7285L13.4179 47.4609C13.4277 47.4707 13.4375 47.4902 13.4375 47.5L13.9355 48.3496ZM33.6718 37.2754C31.6992 38.1445 30.4394 38.7012 29.3457 39.0234C27.3632 39.7266 23.2714 39.375 21.123 39.4531V38.6523H25.9961C28.0175 38.6133 28.0273 35.6055 25.9961 35.5664H17.8125C17.1484 35.5664 16.5332 35.6934 15.9863 35.9473C15.4296 36.2012 14.9316 36.582 14.5019 37.0801L10.8203 41.3477L13.8476 46.5918C14.8339 45.5273 16.1425 43.5938 17.5195 43.0664C18.916 42.2461 23.457 42.6855 25.1953 42.5879C26.6796 42.5879 30.166 40.918 32.6171 39.7461C33.623 39.1113 35.2734 39.043 34.8632 37.7246C34.6484 37.2754 34.1211 37.0703 33.6718 37.2754ZM8.54488 29.4434V30.6445C8.54488 31.3086 9.08199 31.8457 9.74605 31.8457H41.1914C41.8554 31.8457 42.3925 31.3086 42.3925 30.6445V29.4434H8.54488ZM25.4687 14.502C17.5878 14.502 11.1523 20.7812 10.9375 28.6426H40.0097C39.7851 20.7812 33.3496 14.502 25.4687 14.502ZM25.4687 13.7012C26.0449 13.7012 26.6211 13.7305 27.1777 13.7988C27.6074 10.9863 23.3203 10.9863 23.7597 13.7988C24.3164 13.7305 24.8925 13.7012 25.4687 13.7012ZM26.1816 5.95703H35.2246C36.3476 5.91797 36.9433 7.40234 36.1328 8.1543C35.8984 8.38867 35.5761 8.53516 35.2246 8.53516H32.8027C31.6504 8.53516 30.7129 9.48242 30.7129 10.625C30.7129 10.8496 30.8886 11.0254 31.1132 11.0254C31.3379 11.0254 31.5136 10.8496 31.5136 10.625C31.5136 10.2832 31.6504 9.96094 31.875 9.73633C32.1093 9.49219 32.4414 9.33594 32.8027 9.3457H35.2246C37.041 9.4043 38.0175 6.99219 36.6992 5.78125C36.3183 5.40039 35.8007 5.16602 35.2246 5.16602H26.1816C25.0586 5.20508 24.4629 3.7207 25.2734 2.96875C25.5078 2.73438 25.83 2.58789 26.1816 2.58789H29.4629C30.039 2.58789 30.5566 2.35352 30.9375 1.97266C31.3183 1.64063 32.0214 0.224609 31.1523 0.0976562C30.9277 0.0976562 30.7519 0.273438 30.7519 0.498047C30.7519 1.21094 30.1757 1.78711 29.4629 1.78711H26.1816C24.3457 1.72852 23.3789 4.16992 24.7265 5.38086C25.1074 5.73242 25.6152 5.95703 26.1816 5.95703Z" fill="#B74140"/>
</g>
<defs>
<clipPath id="clip0_164_4627">
<rect width="50" height="50" fill="white"/>
</clipPath>
</defs>
</svg>
