<svg width="50" height="50" viewBox="0 0 50 50" fill="none" xmlns="http://www.w3.org/2000/svg">
<path d="M45.3125 12.5V15.625H4.6875V12.5C4.6875 11.6712 5.01674 10.8763 5.60279 10.2903C6.18884 9.70424 6.9837 9.375 7.8125 9.375H12.5V4.6875C12.5 4.2731 12.6646 3.87567 12.9576 3.58265C13.2507 3.28962 13.6481 3.125 14.0625 3.125C14.4769 3.125 14.8743 3.28962 15.1674 3.58265C15.4604 3.87567 15.625 4.2731 15.625 4.6875V9.375H34.375V4.6875C34.375 4.2731 34.5396 3.87567 34.8326 3.58265C35.1257 3.28962 35.5231 3.125 35.9375 3.125C36.3519 3.125 36.7493 3.28962 37.0424 3.58265C37.3354 3.87567 37.5 4.2731 37.5 4.6875V9.375H42.1875C43.0163 9.375 43.8112 9.70424 44.3972 10.2903C44.9833 10.8763 45.3125 11.6712 45.3125 12.5ZM4.6875 18.75H45.3125V42.1875C45.3125 43.0163 44.9833 43.8112 44.3972 44.3972C43.8112 44.9833 43.0163 45.3125 42.1875 45.3125H7.8125C6.9837 45.3125 6.18884 44.9833 5.60279 44.3972C5.01674 43.8112 4.6875 43.0163 4.6875 42.1875V18.75ZM16.1719 29.9219L19.2969 32.9219C19.4446 33.0588 19.5551 33.231 19.618 33.4223C19.6808 33.6136 19.694 33.8178 19.6562 34.0156L18.9375 38.2656C18.8994 38.495 18.926 38.7304 19.0143 38.9454C19.1026 39.1604 19.2492 39.3466 19.4375 39.4829C19.6257 39.6193 19.8483 39.7004 20.0802 39.7172C20.3121 39.7341 20.544 39.6859 20.75 39.5781L24.5469 37.5781C24.7285 37.4861 24.9292 37.4382 25.1328 37.4382C25.3364 37.4382 25.5371 37.4861 25.7187 37.5781L29.5156 39.5781C29.7186 39.6657 29.9413 39.6979 30.1608 39.6714C30.3803 39.6449 30.5889 39.5606 30.7652 39.4272C30.9415 39.2938 31.0793 39.1159 31.1645 38.9119C31.2496 38.7078 31.2792 38.4848 31.25 38.2656L30.5313 34.0156C30.4935 33.8178 30.5067 33.6136 30.5695 33.4223C30.6324 33.231 30.7429 33.0588 30.8906 32.9219L34.0156 29.9219C34.1793 29.7573 34.2946 29.5509 34.3488 29.3252C34.4031 29.0996 34.3943 28.8633 34.3233 28.6424C34.2523 28.4214 34.1219 28.2242 33.9464 28.0723C33.7709 27.9204 33.557 27.8197 33.3281 27.7813L29.0625 27.1719C28.8697 27.1501 28.6845 27.0836 28.5218 26.9779C28.3591 26.8721 28.2232 26.7299 28.125 26.5625L26.2188 22.7031C26.1148 22.4959 25.9552 22.3217 25.7579 22.2C25.5606 22.0783 25.3334 22.0138 25.1016 22.0138C24.8697 22.0138 24.6425 22.0783 24.4452 22.2C24.2479 22.3217 24.0884 22.4959 23.9844 22.7031L22.0625 26.5625C21.9736 26.7445 21.8418 26.9021 21.6785 27.0219C21.5152 27.1416 21.3253 27.2199 21.125 27.25L16.875 27.8594C16.6597 27.9042 16.4597 28.0044 16.2949 28.1501C16.1301 28.2957 16.006 28.4818 15.9351 28.69C15.8641 28.8982 15.8486 29.1213 15.8901 29.3374C15.9316 29.5534 16.0288 29.7548 16.1719 29.9219Z" fill="#B74140"/>
</svg>
