<svg width="50" height="50" viewBox="0 0 50 50" fill="none" xmlns="http://www.w3.org/2000/svg">
<path d="M24.2891 28.7344C24.5547 28.9453 24.7969 29.1328 25 29.2891C25.2031 29.1328 25.4453 28.9453 25.7031 28.7344C26.4297 28.1562 27.2891 27.4531 27.6641 27.0859C27.9453 26.8047 27.9609 26.4453 27.9375 26.2578C27.8484 25.207 26.5492 24.7039 25.7422 25.4531L25.5156 25.6484C25.1188 26.0109 24.6047 25.832 24.2813 25.4687C23.4984 24.7219 22.1406 25.1789 22.0625 26.2656C22.0391 26.4531 22.0547 26.8047 22.3359 27.0859C22.7109 27.4531 23.5625 28.1562 24.2891 28.7344Z" fill="#B74140"/>
<path d="M46.0625 42.7891H43.0312V39.5078C43.9852 39.6203 45.1594 39.9688 45.1484 38.7656L43.4375 26.4953C43.9422 26.6211 44.3906 26.2375 44.418 25.7352V18.6414C44.9023 18.4617 45.5016 18.4609 45.8672 18.0711C45.975 17.9313 46.0383 17.7648 46.0391 17.5859V14.5C46.0342 14.3625 45.9953 14.2284 45.9258 14.1098C45.8562 13.9911 45.7582 13.8917 45.6406 13.8203L25.3828 2.44531C25.1484 2.3125 24.8516 2.3125 24.6172 2.44531L4.35937 13.8203C4.24174 13.8916 4.14371 13.9911 4.07415 14.1097C4.00459 14.2284 3.96568 14.3625 3.96094 14.5C3.96094 14.5 3.97188 17.6906 3.97656 17.7422C4.14375 18.4531 5.01719 18.4281 5.58203 18.6406V25.7344C5.60859 26.1859 5.99453 26.5883 6.46484 26.5094C6.71562 26.2703 4.79687 38.7828 4.85156 38.7656C4.83828 39.9711 6.02734 39.6164 6.96875 39.5078V42.7891H3.9375C3.50781 42.7891 3.15625 43.1406 3.15625 43.5703V46.875C3.15625 47.3047 3.50781 47.6563 3.9375 47.6563H46.0625C46.4922 47.6563 46.8437 47.3047 46.8437 46.875V43.5703C46.8437 43.1406 46.4922 42.7891 46.0625 42.7891ZM5.52344 17V15.5469C18.4852 19.3047 31.5148 19.3047 44.4766 15.5469V17C31.5508 20.8242 18.4516 20.8242 5.52344 17ZM39.1406 15.2812C29.7109 17.3047 20.2891 17.3047 10.8594 15.2812H39.1406ZM11.5937 36.7641C12.7445 36.8984 13.9586 36.7984 14.9336 35.8094C15.0191 35.7195 15.082 35.6105 15.1171 35.4915C15.1521 35.3725 15.1583 35.2469 15.1352 35.125L13.0742 24.2672C14.707 23.3344 15.9242 22.2141 16.7008 20.9234C22.2126 21.6088 27.7882 21.6088 33.3 20.9234C34.0758 22.2141 35.2922 23.3344 36.9266 24.2672L34.8648 35.125C34.8417 35.2469 34.8479 35.3727 34.8831 35.4917C34.9183 35.6107 34.9814 35.7196 35.0672 35.8094C36.0414 36.8016 37.2586 36.8953 38.4062 36.7656C38.3852 37.0891 38.5273 37.3883 38.7031 37.6484V42.7891H30.9531V34.3359C30.9742 32.1781 29.7008 30.0523 27.75 29.0938C27.2969 29.4609 26.7812 29.8672 26.3672 30.2031C25.5648 30.7703 25.5852 30.9883 25 31.0625C24.4141 30.9875 24.4359 30.7711 23.6328 30.2031C23.2187 29.8672 22.7031 29.4609 22.25 29.0859C21.2838 29.5804 20.4732 30.3326 19.9079 31.2591C19.3426 32.1857 19.0446 33.2505 19.0469 34.3359V42.7891H11.2969V37.6484C11.4141 37.4766 11.5984 36.8727 11.5937 36.7641ZM38.4766 35.1711C37.9594 35.2727 37.1094 35.3547 36.4852 34.9656L38.3781 24.9977C38.5469 25.0727 38.7164 25.1477 38.8828 25.2148L38.4766 35.1711ZM38.1633 23.168C36.7984 22.4594 35.7492 21.6305 35.0281 20.6953C36.1617 20.526 37.2909 20.3291 38.4148 20.1047C38.4328 21.6031 39.3961 23.0219 40.4641 24.1359C39.6743 23.8702 38.9053 23.5464 38.1633 23.1672V23.168ZM14.9719 20.6953C13.8922 22.1969 11.4328 23.5352 9.53672 24.1352C10.6047 23.0211 11.568 21.6023 11.5852 20.1039C12.7133 20.3281 13.843 20.5281 14.9719 20.6953ZM11.6219 24.9977L13.5156 34.9656C12.8961 35.3484 12.025 35.2859 11.5242 35.1641L11.118 25.2148C11.2852 25.1477 11.4531 25.0727 11.6219 24.9977ZM42.4062 37.7969C41.1898 37.4961 40.3617 37.2523 39.9766 36.7578L40.4297 25.7695C40.9477 25.9336 41.4187 26.0633 41.8125 26.1609L43.4609 37.9844C43.0937 37.9297 42.7422 37.8672 42.4062 37.7969ZM42.8555 24.2047C41.4227 23.0617 39.9023 21.3961 39.9297 19.7883C40.9097 19.5737 41.8852 19.3387 42.8555 19.0836V24.2047ZM10.0703 19.7891C10.0992 21.3922 8.57656 23.0594 7.14375 24.2031V19.0844C8.11875 19.3422 9.09453 19.5734 10.0703 19.7891ZM6.53906 37.9844L8.1875 26.1609C8.65244 26.0453 9.11361 25.9151 9.57031 25.7703L10.0234 36.7578C9.60859 37.3758 7.69141 37.8219 6.53906 37.9844Z" fill="#B74140"/>
</svg>
